<svg version="1.1" id="Layer_1" xmlns="http://www.w3.org/2000/svg" xmlns:xlink="http://www.w3.org/1999/xlink" x="0px" y="0px"
	 width="100%" viewBox="0 0 272 256" enable-background="new 0 0 272 256" xml:space="preserve">
<path fill="#000000" opacity="1.000000" stroke="none" 
	d="
M71.082336,155.035568 
	C97.098038,142.555191 122.783272,130.252960 148.468369,117.950470 
	C149.970551,117.230965 151.485046,116.535706 152.971054,115.784149 
	C160.615982,111.917679 163.917587,106.100273 162.519257,98.996758 
	C161.173996,92.162933 154.696487,86.699417 146.924042,86.530464 
	C138.438766,86.346016 129.941986,86.768013 121.450188,86.769478 
	C118.058167,86.770058 118.316620,88.982002 118.315552,91.177872 
	C118.311081,100.342033 118.326416,109.506218 118.311089,118.670349 
	C118.303070,123.463219 112.570038,128.661880 107.903595,128.069061 
	C105.152260,127.719536 105.787010,125.412796 105.776619,123.754570 
	C105.702431,111.924911 105.736237,100.094574 105.735855,88.264458 
	C105.735748,84.932053 105.836365,81.595772 105.707352,78.268379 
	C105.586189,75.143311 106.773697,73.698860 110.043961,73.719360 
	C123.039810,73.800880 136.045624,73.449684 149.030151,73.841690 
	C161.176331,74.208374 171.088486,82.485619 174.222931,93.944153 
	C177.295761,105.177414 173.183426,116.056442 163.117737,123.191170 
	C155.177658,128.819214 146.129608,132.343948 137.446014,136.543671 
	C109.711830,149.956970 81.889557,163.189194 54.218346,176.730515 
	C50.045025,178.772781 48.351318,177.708282 46.741039,173.872070 
	C21.146517,112.897598 56.902317,45.123512 120.736366,32.613934 
	C163.164886,24.299204 204.121048,42.058201 227.348099,78.221855 
	C228.067657,79.342178 228.888840,80.435448 229.381821,81.654854 
	C230.315018,83.963196 233.500565,86.247894 229.193573,88.662689 
	C223.373001,91.926109 222.561417,91.961823 219.637207,87.084770 
	C204.563568,61.944778 182.392899,47.017601 153.605789,42.545925 
	C106.487297,35.226727 60.746010,67.786148 51.300510,114.635681 
	C48.484592,128.602615 48.782463,142.387329 52.354099,156.134186 
	C52.889854,158.196243 53.189129,160.390991 55.193687,162.451004 
	C60.289871,160.080368 65.520851,157.647018 71.082336,155.035568 
z"/>
<path fill="#000000" opacity="1.000000" stroke="none" 
	d="
M126.787819,234.468781 
	C95.435814,229.774765 71.763390,214.063263 54.533764,188.407928 
	C56.203632,185.752777 58.514198,185.411560 60.294224,184.269943 
	C62.922432,182.584320 64.658287,183.301514 66.487183,185.839874 
	C80.972359,205.944077 100.423729,218.287018 124.806870,222.929321 
	C160.756760,229.773834 199.555634,212.326294 218.409607,181.050018 
	C230.262970,161.386810 234.186081,140.332947 230.765762,117.766708 
	C230.543579,116.300850 230.534195,114.741264 228.370499,113.366951 
	C216.153931,119.447083 203.563263,125.713409 190.699936,132.115433 
	C192.724075,138.412735 194.554489,144.354218 194.424622,150.814896 
	C194.042694,169.814224 179.152191,185.925095 160.195999,187.410324 
	C143.722916,188.701004 127.221970,187.626297 110.739128,188.021896 
	C107.228645,188.106125 105.522324,186.839279 105.682350,183.060196 
	C105.893669,178.070023 106.223999,173.000900 105.598038,168.080887 
	C104.843910,162.153412 107.373131,159.030045 112.549988,157.232452 
	C114.085304,156.699326 115.379646,155.399323 117.850998,155.921265 
	C118.877411,160.390396 118.334770,165.176605 118.229736,169.860321 
	C118.140717,173.830154 119.619644,175.116852 123.477867,175.052307 
	C133.973389,174.876755 144.473801,174.966400 154.972153,174.992676 
	C166.589096,175.021759 174.896469,169.425613 179.392197,159.110504 
	C183.873276,148.828995 181.849731,139.229233 173.574829,131.264572 
	C172.753769,130.474289 171.753311,129.759903 171.802658,127.742569 
	C176.675522,125.298851 181.829849,122.690277 187.004776,120.123276 
	C201.926636,112.721344 216.893784,105.409286 231.755783,97.889221 
	C235.157089,96.168190 236.678421,96.737885 237.895111,100.400322 
	C256.969604,157.816833 222.659027,220.655106 161.484970,233.346588 
	C150.113892,235.705688 138.713486,236.023422 126.787819,234.468781 
z"/>
</svg>